HIERARCHY
ROOT Hips
{
 OFFSET 0.000000 0.000000 0.000000
 CHANNELS 6 Xposition Yposition Zposition Yrotation Xrotation Zrotation
 JOINT Chest
 {
  OFFSET 0.000000 9.588913 -0.003946
  CHANNELS 3 Yrotation Xrotation Zrotation
  JOINT Chest2
  {
   OFFSET 0.000000 9.541882 0.008053
   CHANNELS 3 Yrotation Xrotation Zrotation
   JOINT Chest3
   {
    OFFSET 0.000000 9.501360 0.000000
    CHANNELS 3 Yrotation Xrotation Zrotation
    JOINT Chest4
    {
     OFFSET 0.000000 9.491660 0.000000
     CHANNELS 3 Yrotation Xrotation Zrotation
     JOINT Neck
     {
      OFFSET 0.000000 14.331917 0.000000
      CHANNELS 3 Yrotation Xrotation Zrotation
      JOINT Head
      {
       OFFSET 0.000000 8.884799 0.017034
       CHANNELS 3 Yrotation Xrotation Zrotation
       End Site
       {
        OFFSET 0.000000 16.896195 0.008993
       }
      }
     }
     JOINT RightCollar
     {
      OFFSET -2.923010 9.499495 0.000000
      CHANNELS 3 Yrotation Xrotation Zrotation
      JOINT RightShoulder
      {
       OFFSET -13.795216 0.000000 0.000000
       CHANNELS 3 Yrotation Xrotation Zrotation
       JOINT RightElbow
       {
        OFFSET -30.272209 0.000000 0.000000
        CHANNELS 3 Yrotation Xrotation Zrotation
        JOINT RightWrist
        {
         OFFSET -24.478199 0.000000 0.000000
         CHANNELS 3 Yrotation Xrotation Zrotation
         End Site
         {
          OFFSET -18.090752 0.000000 0.000000
         }
        }
       }
      }
     }
     JOINT LeftCollar
     {
      OFFSET 2.923010 9.499495 0.000000
      CHANNELS 3 Yrotation Xrotation Zrotation
      JOINT LeftShoulder
      {
       OFFSET 13.795216 0.000000 0.000000
       CHANNELS 3 Yrotation Xrotation Zrotation
       JOINT LeftElbow
       {
        OFFSET 30.272209 0.000000 0.000000
        CHANNELS 3 Yrotation Xrotation Zrotation
        JOINT LeftWrist
        {
         OFFSET 24.478199 0.000000 0.000000
         CHANNELS 3 Yrotation Xrotation Zrotation
         End Site
         {
          OFFSET 18.090752 0.000000 0.000000
         }
        }
       }
      }
     }
    }
   }
  }
 }
 JOINT RightHip
 {
  OFFSET -7.826875 0.019532 0.001973
  CHANNELS 3 Yrotation Xrotation Zrotation
  JOINT RightKnee
  {
   OFFSET 0.000000 -40.546152 -0.001885
   CHANNELS 3 Yrotation Xrotation Zrotation
   JOINT RightAnkle
   {
    OFFSET 0.000000 -39.417092 -0.003189
    CHANNELS 3 Yrotation Xrotation Zrotation
    JOINT RightToe
    {
     OFFSET 0.000000 -7.579396 17.243563
     CHANNELS 3 Yrotation Xrotation Zrotation
     End Site
     {
      OFFSET 0.000000 -1.500329 6.694466
     }
    }
   }
  }
 }
 JOINT LeftHip
 {
  OFFSET 7.826875 0.019532 0.001973
  CHANNELS 3 Yrotation Xrotation Zrotation
  JOINT LeftKnee
  {
   OFFSET 0.000000 -40.546152 -0.001885
   CHANNELS 3 Yrotation Xrotation Zrotation
   JOINT LeftAnkle
   {
    OFFSET 0.000000 -39.417092 -0.003189
    CHANNELS 3 Yrotation Xrotation Zrotation
    JOINT LeftToe
    {
     OFFSET 0.000000 -7.579396 17.243563
     CHANNELS 3 Yrotation Xrotation Zrotation
     End Site
     {
      OFFSET 0.000000 -1.500329 6.694466
     }
    }
   }
  }
 }
}
MOTION
Frames: 8
Frame Time: 0.008333
0.000000 87.345680 0.000000 0.000000 -5.767889 0.000000 0.000000 11.653876 0.000000 0.000000 -5.885988 0.000000 0.000000 -0.000000 0.000000 0.000000 -0.000000 0.000000 0.000000 12.528808 0.000000 0.000000 0.711711 0.000000 0.000000 -0.000000 0.000000 0.000000 -0.000000 0.000000 2.309063 -0.000000 0.000000 -2.309063 -0.000000 -0.000000 0.000000 -0.000000 0.000000 0.000000 0.000000 0.000000 -2.309063 0.000000 0.000000 2.309063 -0.000000 0.000000 0.000000 8.520374 0.000000 0.000000 1.905768 0.000000 -0.000000 -4.658254 0.000000 0.000000 -0.000000 0.000000 0.000000 8.520374 0.000000 0.000000 1.905768 0.000000 -0.000000 -4.658254 0.000000 0.000000 -0.000000 0.000000
-3.791782 87.645487 14.459030 -29.014620 -7.912066 2.478093 -0.210080 4.353506 0.603121 -0.090253 2.555147 0.297651 -0.110768 3.194004 0.371527 -0.090254 2.555147 0.297651 -1.845017 14.549587 -2.310141 -2.584706 -8.788550 -3.634111 -3.244663 2.002101 -1.118434 -10.262576 -3.171397 90.927397 6.548120 -26.920781 -0.092113 6.905305 -4.682081 0.635105 -2.830547 0.490213 -2.309477 4.168201 -4.307532 -90.820326 -2.387531 -17.822606 -8.010701 -12.397881 -9.359824 6.183557 -14.015329 -2.771543 -6.095506 -1.391444 8.496148 -1.621641 -2.837456 0.417274 2.669602 -0.076532 0.156852 0.034009 -0.973087 13.620569 2.701811 3.199577 9.226321 1.338679 -0.432194 -13.747875 -3.385032 -0.092637 -0.504632 -0.026005
-3.978162 87.633066 14.507839 -29.085885 -7.843417 2.470416 -0.192232 4.319298 0.632988 -0.082941 2.525891 0.301076 -0.101625 3.157429 0.375864 -0.082942 2.525891 0.301076 -1.800318 14.551482 -2.329127 -2.493658 -8.784402 -3.686719 -3.235608 1.972865 -1.096978 -10.274439 -3.189198 90.862024 6.456278 -26.549330 -0.109973 6.828763 -4.470925 0.601959 -2.785403 0.560118 -2.273199 4.346925 -4.293338 -90.971789 -2.398638 -17.962131 -7.992357 -12.575059 -9.434442 6.272340 -14.232987 -2.650377 -5.982229 -1.305774 8.390420 -1.589382 -2.817304 0.377276 2.586186 -0.066862 0.077027 -0.005518 -0.734101 13.732747 2.824175 3.258559 9.044075 1.431260 -0.546982 -13.690106 -3.585687 -0.074812 -0.537796 0.008348
-4.189645 87.615121 14.559102 -29.160227 -7.728392 2.474224 -0.177850 4.264239 0.653546 -0.079152 2.490521 0.303802 -0.096898 3.113214 0.379304 -0.079153 2.490521 0.303803 -1.748908 14.552712 -2.349066 -2.389653 -8.781325 -3.743664 -3.213868 1.948161 -1.092466 -10.269849 -3.219065 90.801726 6.366817 -26.067302 -0.118709 6.735586 -4.243558 0.551576 -2.736587 0.625788 -2.219064 4.511097 -4.257286 -91.150691 -2.416784 -18.120286 -7.974905 -12.743941 -9.512644 6.354224 -14.427026 -2.562056 -5.863824 -1.133472 8.289470 -1.553360 -2.847059 0.322151 2.501678 -0.057675 0.007967 -0.029117 -0.457543 13.798559 2.963761 3.278035 8.878099 1.513733 -0.644671 -13.639810 -3.805080 -0.062050 -0.575304 0.040466
-4.420240 87.591271 14.611758 -29.233787 -7.583956 2.484331 -0.169530 4.197740 0.667861 -0.078346 2.451216 0.306714 -0.095902 3.064082 0.382956 -0.078347 2.451216 0.306714 -1.691341 14.552546 -2.369049 -2.274059 -8.780670 -3.803028 -3.179380 1.922227 -1.101979 -10.240775 -3.253693 90.741326 6.284550 -25.506939 -0.122771 6.621784 -4.009188 0.490732 -2.687682 0.683940 -2.154367 4.652616 -4.197092 -91.349507 -2.444404 -18.289045 -7.960837 -12.889816 -9.589151 6.418999 -14.583702 -2.486255 -5.731892 -0.960629 8.173891 -1.538598 -2.874661 0.260378 2.418157 -0.048808 -0.046815 -0.037567 -0.151754 13.826737 3.118781 3.257082 8.739394 1.590487 -0.724797 -13.604835 -4.040987 -0.053863 -0.612868 0.069935
-4.664495 87.561156 14.662974 -29.298073 -7.418450 2.487933 -0.171553 4.122760 0.688352 -0.080806 2.409873 0.310171 -0.098990 3.012407 0.387268 -0.080808 2.409874 0.310172 -1.628715 14.549160 -2.388573 -2.149094 -8.785821 -3.863464 -3.132176 1.889176 -1.122321 -10.186395 -3.288659 90.674996 6.210630 -24.903287 -0.121410 6.485450 -3.787392 0.426869 -2.641028 0.729522 -2.089071 4.765202 -4.115645 -91.553824 -2.478277 -18.461956 -7.956247 -13.002215 -9.655116 6.465561 -14.699766 -2.411573 -5.584443 -0.823481 8.030423 -1.527520 -2.898929 0.203598 2.321012 -0.039997 -0.089718 -0.034462 0.167074 13.820445 3.293286 3.211941 8.625628 1.668443 -0.796060 -13.550768 -4.291127 -0.050803 -0.677901 0.095218
-4.915091 87.525255 14.714640 -29.353996 -7.251970 2.504035 -0.179179 4.053533 0.696090 -0.087394 2.368246 0.313786 -0.107238 2.960379 0.391752 -0.087395 2.368246 0.313787 -1.562292 14.542243 -2.406756 -2.017439 -8.797370 -3.922848 -3.074348 1.849624 -1.147804 -10.106481 -3.324140 90.599538 6.149447 -24.295325 -0.115872 6.326737 -3.597096 0.369811 -2.597994 0.759922 -2.028771 4.844179 -4.018585 -91.752262 -2.514854 -18.629621 -7.961364 -13.073773 -9.706691 6.493603 -14.774511 -2.325786 -5.465210 -0.714217 7.858786 -1.488189 -2.931645 0.141033 2.202719 -0.031790 -0.110824 -0.024938 0.481586 13.789467 3.457289 3.160783 8.563780 1.752136 -0.865280 -13.558746 -4.546900 -0.046924 -0.705757 0.114291
-5.169777 87.483882 14.764630 -29.391143 -7.089922 2.520524 -0.195239 3.988658 0.699473 -0.098338 2.327970 0.317757 -0.120929 2.910045 0.396653 -0.098339 2.327971 0.317757 -1.493696 14.532800 -2.423482 -1.882198 -8.813477 -3.980358 -3.011508 1.805656 -1.171530 -9.997616 -3.359364 90.511696 6.104807 -23.725139 -0.104736 6.149792 -3.444139 0.330682 -2.563305 0.776884 -1.978723 4.884930 -3.912420 -91.932844 -2.551930 -18.781135 -7.976805 -13.100667 -9.744118 6.496596 -14.817884 -2.225833 -5.368532 -0.638685 7.665090 -1.421516 -2.960925 0.075445 2.074297 -0.027009 -0.117379 -0.016380 0.775848 13.737594 3.620800 3.109804 8.547651 1.836723 -0.932446 -13.592670 -4.797233 -0.043767 -0.724311 0.122822
